<?xml version="1.0" encoding="UTF-8"?>
<!DOCTYPE svg PUBLIC "-//W3C//DTD SVG 1.1//EN" "http://www.w3.org/Graphics/SVG/1.1/DTD/svg11.dtd">
<!-- Creator: CorelDRAW Home & Student X6 -->
<svg xmlns="http://www.w3.org/2000/svg" xml:space="preserve" width="55.4047mm" height="22.8032mm" version="1.1" shape-rendering="geometricPrecision" text-rendering="geometricPrecision" image-rendering="optimizeQuality" fill-rule="evenodd" clip-rule="evenodd"
viewBox="0 0 15114 6221"
 xmlns:xlink="http://www.w3.org/1999/xlink">
 <g id="Ebene_x0020_1_0">
  <metadata id="CorelCorpID_0Corel-Layer"/>
  <path fill="#38CAE0" fill-rule="nonzero" d="M13285 6221c738,0 1376,-269 1829,-806l-789 -873c-235,252 -537,436 -889,436 -738,0 -1259,-571 -1259,-1594 0,-990 520,-1577 1192,-1577 369,0 638,134 889,352l789 -889c-386,-369 -973,-705 -1678,-705 -1477,0 -2668,1040 -2668,2870 0,1863 1225,2786 2584,2786z"/>
  <polygon fill="#FFCE3B" fill-rule="nonzero" points="9508,6120 10951,6120 10951,1925 7914,1925 7914,3049 9508,3049 "/>
  <path fill="#FFCE3B" fill-rule="nonzero" d="M10179 1695c537,0 923,-336 923,-839 0,-503 -386,-856 -923,-856 -537,0 -923,352 -923,856 0,503 386,839 923,839z"/>
  <path fill="#FFCE3B" fill-rule="nonzero" d="M6625 3250l0 -1443 537 0c537,0 839,185 839,671 0,487 -268,772 -839,772l-537 0zm-1443 2870l1443 0 0 -1729 604 0c1141,0 2182,-579 2182,-1913 0,-1376 -1007,-1812 -2182,-1812l-2047 0 0 5454z"/>
  <polygon fill="#ED5121" fill-rule="nonzero" points="2621,6147 5539,6147 5539,5322 4074,5322 5502,3635 5502,3068 2793,3068 2793,3893 4037,3893 2621,5580 "/>
  <path fill="#ED5121" fill-rule="nonzero" d="M1650 3695c289,0 449,154 493,443l-1078 0c86,-302 283,-443 585,-443zm74 2426l896 25 1453 -825 -2202 -1c-449,0 -720,-148 -813,-493l1977 0c12,-74 43,-259 43,-443 0,-825 -493,-1490 -1465,-1490 -825,0 -1613,603 -1613,1613 0,1022 752,1586 1724,1613z"/>
 </g>
</svg>
