<?xml version="1.0" encoding="UTF-8"?>
<!DOCTYPE svg PUBLIC "-//W3C//DTD SVG 1.1//EN" "http://www.w3.org/Graphics/SVG/1.1/DTD/svg11.dtd">
<!-- Creator: CorelDRAW Home & Student X6 -->
<svg xmlns="http://www.w3.org/2000/svg" xml:space="preserve" width="24.9999mm" height="24.9999mm" version="1.1" shape-rendering="geometricPrecision" text-rendering="geometricPrecision" image-rendering="optimizeQuality" fill-rule="evenodd" clip-rule="evenodd"
viewBox="0 0 234 234"
 xmlns:xlink="http://www.w3.org/1999/xlink">
 <g id="Ebene_x0020_1">
  <metadata id="CorelCorpID_0Corel-Layer"/>
  <path fill="#38CAE0" fill-rule="nonzero" d="M36 0l163 0c10,0 19,4 25,10 6,6 10,15 10,25l0 163c0,10 -4,19 -10,25 -6,6 -15,10 -25,10l-163 0c-10,0 -19,-4 -25,-10 -6,-6 -10,-15 -10,-25l0 -163c0,-10 4,-19 10,-25 6,-6 15,-10 25,-10z"/>
  <path fill="#343A40" fill-rule="nonzero" d="M199 9l-163 0c-7,0 -14,3 -19,8 -5,5 -8,11 -8,19l0 163c0,7 3,14 8,19 5,5 11,8 19,8l163 0c7,0 14,-3 19,-8 5,-5 8,-11 8,-19l0 -163c0,-7 -3,-14 -8,-19 -5,-5 -11,-8 -19,-8z"/>
  <path fill="#38CAE0" fill-rule="nonzero" d="M122 184c21,0 40,-8 53,-23l-23 -25c-7,7 -15,12 -26,12 -21,0 -36,-16 -36,-46 0,-29 15,-45 34,-45 11,0 18,4 26,10l23 -26c-11,-11 -28,-20 -48,-20 -42,0 -77,30 -77,83 0,53 35,80 74,80l0 0 0 0z"/>
  <path fill="#FFCE3B" fill-rule="nonzero" d="M34 194l31 0 0 -38 13 0c25,0 48,-13 48,-42 0,-30 -22,-40 -48,-40l-45 0 0 119 0 0zm31 -63l0 -31 12 0c12,0 18,4 18,15 0,11 -6,17 -18,17l-12 0zm104 63l31 0 0 -92 -66 0 0 25 35 0 0 67 0 0zm15 -104c12,0 20,-7 20,-18 0,-11 -8,-19 -20,-19 -12,0 -20,8 -20,19 0,11 9,18 20,18z"/>
  <path fill="#ED5121" fill-rule="nonzero" d="M117 202l-7 -14c-6,3 -11,4 -16,4 -10,0 -16,-3 -18,-11l43 0c0,-2 1,-6 1,-10 0,-18 -11,-32 -32,-32 -18,0 -35,13 -35,35 0,22 16,35 38,35l0 0c9,0 19,-3 27,-7zm-29 -45c6,0 10,3 11,10l-24 0c2,-7 6,-10 13,-10l0 0zm35 51l64 0 0 -18 -32 0 31 -37 0 -12 -59 0 0 18 27 0 -31 37 0 12z"/>
 </g>
</svg>
