<?xml version="1.0" encoding="UTF-8"?>
<!DOCTYPE svg PUBLIC "-//W3C//DTD SVG 1.0//EN" "http://www.w3.org/TR/2001/REC-SVG-20010904/DTD/svg10.dtd">
<!-- Creator: CorelDRAW Home & Student X8 -->
<svg xmlns="http://www.w3.org/2000/svg" xml:space="preserve" width="0.0283465%" height="100%" version="1.0" style="shape-rendering:geometricPrecision; text-rendering:geometricPrecision; image-rendering:optimizeQuality; fill-rule:evenodd; clip-rule:evenodd"
viewBox="0 0 28 30000"
 xmlns:xlink="http://www.w3.org/1999/xlink">
 <defs>
  <style type="text/css">
   <![CDATA[
    .fil1 {fill:#38CAE0}
    .fil0 {fill:#ED5121}
    .fil2 {fill:#FFCE3B}
   ]]>
  </style>
 </defs>
 <g id="Ebene_x0020_1">
  <metadata id="CorelCorpID_0Corel-Layer"/>
  <polygon class="fil0" points="15,4375 15,0 15,625 15,5000 14,5000 13,4375 "/>
  <polygon class="fil0" points="15,9375 15,5000 15,5625 15,10000 14,10000 13,9375 "/>
  <polygon class="fil0" points="15,14375 15,10000 15,10625 15,15000 14,15000 13,14375 "/>
  <polygon class="fil0" points="15,19375 15,15000 15,15625 15,20000 14,20000 13,19375 "/>
  <polygon class="fil0" points="15,24375 15,20000 15,20625 15,25000 14,25000 13,24375 "/>
  <polygon class="fil0" points="15,29375 15,25000 15,25625 15,30000 14,30000 13,29375 "/>
  <polygon class="fil0" points="16,4375 16,0 16,625 16,5000 15,5000 15,4375 "/>
  <polygon class="fil0" points="18,4375 18,0 18,625 18,5000 16,5000 16,4375 "/>
  <polygon class="fil0" points="19,9375 19,5000 19,5625 19,10000 18,10000 18,9375 "/>
  <polygon class="fil0" points="19,14375 19,10000 19,10625 19,15000 18,15000 18,14375 "/>
  <polygon class="fil0" points="18,19375 18,15000 18,15625 18,20000 16,20000 16,19375 "/>
  <polygon class="fil0" points="16,19375 16,15000 16,15625 16,20000 15,20000 15,19375 "/>
  <polygon class="fil0" points="21,4375 21,0 21,625 21,5000 20,5000 20,4375 "/>
  <polygon class="fil0" points="21,14375 21,10000 21,10625 21,15000 20,15000 20,14375 "/>
  <polygon class="fil0" points="21,19375 21,15000 21,15625 21,20000 20,20000 20,19375 "/>
  <polygon class="fil0" points="21,24375 21,20000 21,20625 21,25000 20,25000 20,24375 "/>
  <polygon class="fil0" points="21,29375 21,25000 21,25625 21,30000 20,30000 20,29375 "/>
  <polygon class="fil1" points="24,9375 24,5000 24,5625 24,10000 23,10000 23,9375 "/>
  <polygon class="fil1" points="24,14375 24,10000 24,10625 24,15000 23,15000 23,14375 "/>
  <polygon class="fil1" points="24,19375 24,15000 24,15625 24,20000 23,20000 23,19375 "/>
  <polygon class="fil1" points="24,24375 24,20000 24,20625 24,25000 23,25000 23,24375 "/>
  <polygon class="fil1" points="25,4375 25,0 26,625 26,5000 24,5000 24,4375 "/>
  <polygon class="fil1" points="27,4375 27,0 27,625 27,5000 26,5000 26,4375 "/>
  <polygon class="fil1" points="25,29375 25,25000 26,25625 26,30000 24,30000 24,29375 "/>
  <polygon class="fil1" points="27,29375 27,25000 27,25625 27,30000 26,30000 26,29375 "/>
  <polygon class="fil1" points="28,4375 28,0 28,625 28,5000 27,5000 27,4375 "/>
  <polygon class="fil1" points="28,29375 28,25000 28,25625 28,30000 27,30000 27,29375 "/>
  <polygon class="fil2" points="9,29375 9,25000 9,25625 9,30000 8,30000 8,29375 "/>
  <polygon class="fil2" points="10,29375 10,25000 11,25625 11,30000 9,30000 9,29375 "/>
  <polygon class="fil2" points="12,29375 12,25000 12,25625 12,30000 11,30000 11,29375 "/>
  <polygon class="fil2" points="3,29375 3,25000 3,25625 3,30000 2,30000 1,29375 "/>
  <polygon class="fil2" points="4,29375 4,25000 4,25625 4,30000 3,30000 3,29375 "/>
  <polygon class="fil2" points="5,29375 5,25000 6,25625 6,30000 4,30000 4,29375 "/>
  <polygon class="fil2" points="8,29375 8,25000 8,25625 8,30000 7,30000 6,29375 "/>
  <polygon class="fil2" points="9,9375 9,5000 9,5625 9,10000 8,10000 8,9375 "/>
  <polygon class="fil2" points="10,9375 10,5000 11,5625 11,10000 9,10000 9,9375 "/>
  <polygon class="fil2" points="12,9375 12,5000 12,5625 12,10000 11,10000 11,9375 "/>
  <polygon class="fil2" points="8,9375 8,5000 8,5625 8,10000 7,10000 6,9375 "/>
  <polygon class="fil2" points="3,19375 3,15000 3,15625 3,20000 2,20000 1,19375 "/>
  <polygon class="fil2" points="4,19375 4,15000 4,15625 4,20000 3,20000 3,19375 "/>
  <polygon class="fil2" points="5,19375 5,15000 6,15625 6,20000 4,20000 4,19375 "/>
  <polygon class="fil2" points="1,19375 1,15000 1,15625 1,20000 0,20000 0,19375 "/>
  <polygon class="fil2" points="9,24375 9,20000 9,20625 9,25000 8,25000 8,24375 "/>
  <polygon class="fil2" points="10,19375 10,15000 11,15625 11,20000 9,20000 9,19375 "/>
  <polygon class="fil2" points="12,14375 12,10000 12,10625 12,15000 11,15000 11,14375 "/>
  <polygon class="fil2" points="3,9375 3,5000 3,5625 3,10000 2,10000 1,9375 "/>
  <polygon class="fil2" points="4,9375 4,5000 4,5625 4,10000 3,10000 3,9375 "/>
  <polygon class="fil2" points="5,14375 5,10000 6,10625 6,15000 4,15000 4,14375 "/>
  <polygon class="fil2" points="1,14375 1,10000 1,10625 1,15000 0,15000 0,14375 "/>
  <polygon class="fil2" points="1,24375 1,20000 1,20625 1,25000 0,25000 0,24375 "/>
 </g>
</svg>
